<svg width="100" height="100" viewBox="0 0 100 100" fill="none" xmlns="http://www.w3.org/2000/svg">
<path d="M83.3333 8.33334V25M91.6667 16.6667H75M45.9042 11.725C46.0827 10.7692 46.5899 9.90591 47.3379 9.28467C48.0859 8.66343 49.0277 8.32336 50 8.32336C50.9724 8.32336 51.9141 8.66343 52.6621 9.28467C53.4101 9.90591 53.9173 10.7692 54.0958 11.725L58.475 34.8833C58.786 36.5298 59.5862 38.0442 60.771 39.2291C61.9558 40.4139 63.4702 41.214 65.1167 41.525L88.275 45.9042C89.2308 46.0827 90.0941 46.5899 90.7153 47.3379C91.3366 48.0859 91.6766 49.0277 91.6766 50C91.6766 50.9724 91.3366 51.9141 90.7153 52.6621C90.0941 53.4101 89.2308 53.9173 88.275 54.0958L65.1167 58.475C63.4702 58.786 61.9558 59.5862 60.771 60.771C59.5862 61.9558 58.786 63.4702 58.475 65.1167L54.0958 88.275C53.9173 89.2308 53.4101 90.0941 52.6621 90.7153C51.9141 91.3366 50.9724 91.6766 50 91.6766C49.0277 91.6766 48.0859 91.3366 47.3379 90.7153C46.5899 90.0941 46.0827 89.2308 45.9042 88.275L41.525 65.1167C41.214 63.4702 40.4139 61.9558 39.2291 60.771C38.0442 59.5862 36.5298 58.786 34.8833 58.475L11.725 54.0958C10.7692 53.9173 9.90591 53.4101 9.28467 52.6621C8.66343 51.9141 8.32336 50.9724 8.32336 50C8.32336 49.0277 8.66343 48.0859 9.28467 47.3379C9.90591 46.5899 10.7692 46.0827 11.725 45.9042L34.8833 41.525C36.5298 41.214 38.0442 40.4139 39.2291 39.2291C40.4139 38.0442 41.214 36.5298 41.525 34.8833L45.9042 11.725ZM25 83.3333C25 87.9357 21.269 91.6667 16.6667 91.6667C12.0643 91.6667 8.33334 87.9357 8.33334 83.3333C8.33334 78.731 12.0643 75 16.6667 75C21.269 75 25 78.731 25 83.3333Z" stroke="#E8A4C8" stroke-width="2" stroke-linecap="round" stroke-linejoin="round"/>
</svg>
